<svg width="142" height="142" viewBox="0 0 142 142" fill="none" xmlns="http://www.w3.org/2000/svg">
<path d="M71.0002 106.5L43.9758 68.3375C39.5524 63.1149 36.7038 56.743 35.7618 49.964C34.8197 43.185 35.823 36.2778 38.6548 30.047C41.4866 23.8162 46.0303 18.5181 51.7568 14.7697C57.4833 11.0214 64.1568 8.97714 71.0002 8.875C80.4864 8.96874 89.5489 12.8181 96.2027 19.5801C102.857 26.342 106.559 35.4654 106.5 44.9519C106.504 53.2275 103.686 61.2572 98.5127 67.7163L71.0002 106.5ZM71.0002 17.75C63.864 17.8319 57.0521 20.7425 52.0601 25.8427C47.0681 30.9428 44.3042 37.8156 44.3752 44.9519C44.4049 51.4653 46.7483 57.7563 50.9871 62.7019L71.0002 91.0575L91.5458 62.125C95.4512 57.2502 97.5937 51.1981 97.6252 44.9519C97.6962 37.8156 94.9323 30.9428 89.9403 25.8427C84.9483 20.7425 78.1363 17.8319 71.0002 17.75Z" fill="#41EB5C"/>
<path d="M71 48.8125C75.9015 48.8125 79.875 44.839 79.875 39.9375C79.875 35.036 75.9015 31.0625 71 31.0625C66.0985 31.0625 62.125 35.036 62.125 39.9375C62.125 44.839 66.0985 48.8125 71 48.8125Z" fill="#41EB5C"/>
<path d="M124.25 53.25H115.375V62.125H124.25V124.25H17.75V62.125H26.625V53.25H17.75C15.3962 53.25 13.1388 54.185 11.4744 55.8494C9.81004 57.5138 8.875 59.7712 8.875 62.125V124.25C8.875 126.604 9.81004 128.861 11.4744 130.526C13.1388 132.19 15.3962 133.125 17.75 133.125H124.25C126.604 133.125 128.861 132.19 130.526 130.526C132.19 128.861 133.125 126.604 133.125 124.25V62.125C133.125 59.7712 132.19 57.5138 130.526 55.8494C128.861 54.185 126.604 53.25 124.25 53.25Z" fill="#41EB5C"/>
</svg>
