<svg width="149" height="143" viewBox="0 0 149 143" fill="none" xmlns="http://www.w3.org/2000/svg">
<rect x="19.8828" y="15.9443" width="109.233" height="107.444" rx="7.5" stroke="#41EB5C" stroke-width="5"/>
<ellipse cx="42.5321" cy="98.6889" rx="4.96667" ry="4.88889" fill="#89E762"/>
<rect x="39.7344" width="6.20834" height="17.1111" fill="#89E762"/>
<rect x="55.876" width="6.20834" height="17.1111" fill="#89E762"/>
<rect x="72.0176" width="6.20834" height="17.1111" fill="#89E762"/>
<rect x="88.1602" width="6.20834" height="17.1111" fill="#89E762"/>
<rect x="104.3" width="6.20834" height="17.1111" fill="#89E762"/>
<rect x="39.7334" y="125.889" width="6.20834" height="17.1111" fill="#89E762"/>
<rect x="55.875" y="125.889" width="6.20834" height="17.1111" fill="#89E762"/>
<rect x="72.0166" y="125.889" width="6.20834" height="17.1111" fill="#89E762"/>
<rect x="88.1577" y="125.889" width="6.20834" height="17.1111" fill="#89E762"/>
<rect x="104.3" y="125.889" width="6.20834" height="17.1111" fill="#89E762"/>
<rect x="131.617" y="103.889" width="6.11111" height="17.3833" transform="rotate(-90 131.617 103.889)" fill="#89E762"/>
<rect x="131.617" y="87.9999" width="6.11111" height="17.3833" transform="rotate(-90 131.617 87.9999)" fill="#89E762"/>
<rect x="131.617" y="72.1112" width="6.11111" height="17.3833" transform="rotate(-90 131.617 72.1112)" fill="#89E762"/>
<rect x="131.617" y="56.2219" width="6.11111" height="17.3833" transform="rotate(-90 131.617 56.2219)" fill="#89E762"/>
<rect x="131.617" y="40.3332" width="6.11111" height="17.3833" transform="rotate(-90 131.617 40.3332)" fill="#89E762"/>
<rect y="103.889" width="6.11111" height="17.3833" transform="rotate(-90 0 103.889)" fill="#89E762"/>
<rect y="87.9999" width="6.11111" height="17.3833" transform="rotate(-90 0 87.9999)" fill="#89E762"/>
<rect y="72.1112" width="6.11111" height="17.3833" transform="rotate(-90 0 72.1112)" fill="#89E762"/>
<rect y="56.2219" width="6.11111" height="17.3833" transform="rotate(-90 0 56.2219)" fill="#89E762"/>
<rect y="40.3332" width="6.11111" height="17.3833" transform="rotate(-90 0 40.3332)" fill="#89E762"/>
</svg>
