<svg width="130" height="130" viewBox="0 0 130 130" fill="none" xmlns="http://www.w3.org/2000/svg">
<path d="M65.0009 38.6242C61.5372 38.6242 58.1075 39.3064 54.9075 40.6319C51.7075 41.9574 48.7998 43.9002 46.3507 46.3494C43.9015 48.7986 41.9587 51.7062 40.6332 54.9062C39.3077 58.1062 38.6255 61.5359 38.6255 64.9996C38.6255 68.4633 39.3077 71.893 40.6332 75.093C41.9587 78.293 43.9015 81.2006 46.3507 83.6498C48.7998 86.099 51.7075 88.0418 54.9075 89.3673C58.1075 90.6928 61.5372 91.375 65.0009 91.375C71.9961 91.375 78.7048 88.5962 83.6511 83.6498C88.5975 78.7035 91.3763 71.9948 91.3763 64.9996C91.3763 58.0044 88.5975 51.2957 83.6511 46.3494C78.7048 41.403 71.9961 38.6242 65.0009 38.6242ZM46.751 64.9996C46.751 60.1594 48.6737 55.5175 52.0963 52.095C55.5188 48.6725 60.1607 46.7497 65.0009 46.7497C69.8411 46.7497 74.483 48.6725 77.9055 52.095C81.328 55.5175 83.2508 60.1594 83.2508 64.9996C83.2508 69.8398 81.328 74.4817 77.9055 77.9042C74.483 81.3267 69.8411 83.2495 65.0009 83.2495C60.1607 83.2495 55.5188 81.3267 52.0963 77.9042C48.6737 74.4817 46.751 69.8398 46.751 64.9996Z" fill="#41EB5C"/>
<path d="M79.5934 10.9085C75.3113 -3.63616 54.6887 -3.63616 50.4066 10.9085L49.6428 13.5005C49.3437 14.5158 48.8213 15.4513 48.1137 16.2385C47.4061 17.0256 46.5314 17.6445 45.5536 18.0496C44.5757 18.4548 43.5197 18.636 42.4627 18.5799C41.4058 18.5239 40.3748 18.2321 39.4453 17.7258L37.0726 16.4257C23.7468 9.17776 9.17776 23.7549 16.4338 37.0726L17.7258 39.4453C18.2321 40.3748 18.5239 41.4058 18.5799 42.4627C18.636 43.5197 18.4548 44.5757 18.0496 45.5536C17.6445 46.5314 17.0256 47.4061 16.2385 48.1137C15.4513 48.8213 14.5158 49.3437 13.5005 49.6428L10.9085 50.4066C-3.63616 54.6887 -3.63616 75.3113 10.9085 79.5934L13.5005 80.3572C14.5158 80.6563 15.4513 81.1787 16.2385 81.8863C17.0256 82.5939 17.6445 83.4686 18.0496 84.4464C18.4548 85.4243 18.636 86.4803 18.5799 87.5373C18.5239 88.5942 18.2321 89.6252 17.7258 90.5547L16.4257 92.9274C9.17776 106.253 23.7468 120.83 37.0726 113.566L39.4453 112.274C40.3748 111.768 41.4058 111.476 42.4627 111.42C43.5197 111.364 44.5757 111.545 45.5536 111.95C46.5314 112.356 47.4061 112.974 48.1137 113.762C48.8213 114.549 49.3437 115.484 49.6428 116.499L50.4066 119.092C54.6887 133.636 75.3113 133.636 79.5934 119.092L80.3572 116.499C80.6563 115.484 81.1787 114.549 81.8863 113.762C82.5939 112.974 83.4686 112.356 84.4464 111.95C85.4243 111.545 86.4803 111.364 87.5373 111.42C88.5942 111.476 89.6252 111.768 90.5547 112.274L92.9274 113.574C106.253 120.83 120.83 106.245 113.566 92.9274L112.274 90.5547C111.768 89.6252 111.476 88.5942 111.42 87.5373C111.364 86.4803 111.545 85.4243 111.95 84.4464C112.356 83.4686 112.974 82.5939 113.762 81.8863C114.549 81.1787 115.484 80.6563 116.499 80.3572L119.092 79.5934C133.636 75.3113 133.636 54.6887 119.092 50.4066L116.499 49.6428C115.484 49.3437 114.549 48.8213 113.762 48.1137C112.974 47.4061 112.356 46.5314 111.95 45.5536C111.545 44.5757 111.364 43.5197 111.42 42.4627C111.476 41.4058 111.768 40.3748 112.274 39.4453L113.574 37.0726C120.83 23.7468 106.245 9.17776 92.9274 16.4338L90.5547 17.7258C89.6252 18.2321 88.5942 18.5239 87.5373 18.5799C86.4803 18.636 85.4243 18.4548 84.4464 18.0496C83.4686 17.6445 82.5939 17.0256 81.8863 16.2385C81.1787 15.4513 80.6563 14.5158 80.3572 13.5005L79.5934 10.9085ZM58.199 13.208C60.1978 6.42321 69.8022 6.42321 71.8011 13.208L72.5648 15.8001C73.2069 17.9784 74.3284 19.9854 75.847 21.674C77.3655 23.3626 79.2428 24.6899 81.341 25.5586C83.4393 26.4274 85.7053 26.8155 87.9731 26.6946C90.2409 26.5738 92.4528 25.9469 94.4468 24.86L96.8114 23.5599C103.019 20.1878 109.812 26.9726 106.432 33.1886L105.14 35.5613C104.055 37.5555 103.429 39.7673 103.31 42.0345C103.19 44.3018 103.579 46.567 104.449 48.6644C105.318 50.7617 106.646 52.6379 108.335 54.1555C110.023 55.6731 112.03 56.7937 114.208 57.4352L116.792 58.199C123.577 60.1978 123.577 69.8022 116.792 71.8011L114.2 72.5648C112.022 73.2069 110.015 74.3284 108.326 75.847C106.637 77.3655 105.31 79.2428 104.441 81.341C103.573 83.4393 103.184 85.7053 103.305 87.9731C103.426 90.2409 104.053 92.4528 105.14 94.4468L106.44 96.8114C109.812 103.019 103.027 109.812 96.8114 106.432L94.4468 105.14C92.4523 104.053 90.2398 103.427 87.9716 103.306C85.7034 103.186 83.437 103.575 81.3386 104.444C79.2403 105.314 77.3632 106.642 75.845 108.332C74.3268 110.021 73.206 112.029 72.5648 114.208L71.8011 116.792C69.8022 123.577 60.1978 123.577 58.199 116.792L57.4352 114.2C56.7928 112.023 55.6715 110.017 54.1535 108.329C52.6355 106.641 50.7592 105.315 48.662 104.446C46.5648 103.577 44.2998 103.189 42.033 103.309C39.7662 103.429 37.555 104.055 35.5613 105.14L33.1886 106.44C26.9807 109.812 20.1878 103.027 23.568 96.8114L24.86 94.4468C25.9484 92.4525 26.5765 90.2398 26.6982 87.9711C26.8199 85.7024 26.4321 83.4352 25.5632 81.3359C24.6943 79.2366 23.3665 77.3584 21.6771 75.8393C19.9876 74.3201 17.9795 73.1985 15.8001 72.5567L13.208 71.7929C6.42321 69.7941 6.42321 60.1897 13.208 58.1908L15.8001 57.427C17.9761 56.7844 19.9809 55.6633 21.6678 54.1459C23.3547 52.6284 24.6809 50.753 25.5495 48.6568C26.418 46.5606 26.8068 44.2968 26.6876 42.031C26.5683 39.7651 25.9438 37.5547 24.86 35.5613L23.5599 33.1886C20.1878 26.9807 26.9726 20.1878 33.1886 23.568L35.5613 24.86C37.555 25.9454 39.7662 26.571 42.033 26.6911C44.2998 26.8112 46.5648 26.4227 48.662 25.554C50.7592 24.6854 52.6355 23.3586 54.1535 21.6709C55.6715 19.9832 56.7928 17.9772 57.4352 15.8001L58.199 13.208Z" fill="#41EB5C"/>
</svg>
