<svg width="225" height="225" viewBox="0 0 225 225" fill="none" xmlns="http://www.w3.org/2000/svg">
<circle cx="112.5" cy="112.5" r="107" stroke="black" stroke-width="11"/>
<path d="M85.4582 53.8018C86.6269 54.9558 87.2834 56.5208 87.2834 58.1526C87.2834 59.7844 86.6269 61.3494 85.4582 62.5034L74.281 73.5374H123.129C132.993 73.5374 142.635 76.4247 150.836 81.8344C159.037 87.244 165.429 94.9328 169.204 103.929C172.978 112.925 173.966 122.823 172.042 132.373C170.117 141.923 165.368 150.695 158.393 157.58C151.419 164.466 142.533 169.154 132.859 171.054C123.185 172.954 113.157 171.979 104.045 168.252C94.932 164.526 87.1432 158.216 81.6634 150.12C76.1835 142.024 73.2586 132.506 73.2586 122.769C73.2586 121.137 73.9154 119.571 75.0845 118.417C76.2535 117.263 77.8391 116.615 79.4925 116.615C81.1458 116.615 82.7314 117.263 83.9004 118.417C85.0695 119.571 85.7263 121.137 85.7263 122.769C85.7263 130.071 87.9199 137.21 92.0298 143.282C96.1397 149.354 101.981 154.087 108.816 156.882C115.65 159.676 123.171 160.407 130.426 158.983C137.682 157.558 144.346 154.041 149.577 148.878C154.808 143.714 158.37 137.135 159.814 129.972C161.257 122.81 160.516 115.386 157.685 108.639C154.854 101.892 150.06 96.1251 143.909 92.0679C137.758 88.0107 130.527 85.8452 123.129 85.8452H74.281L85.4582 96.8792C86.5938 98.0398 87.2221 99.5943 87.2079 101.208C87.1937 102.821 86.5381 104.365 85.3823 105.506C84.2265 106.647 82.663 107.294 81.0285 107.308C79.394 107.322 77.8193 106.702 76.6436 105.581L54.8252 84.0421C53.6565 82.8881 53 81.3231 53 79.6913C53 78.0595 53.6565 76.4945 54.8252 75.3405L76.6436 53.8018C77.8126 52.6481 79.3979 52 81.0509 52C82.7039 52 84.2892 52.6481 85.4582 53.8018V53.8018Z" fill="black"/>
</svg>
