<svg width="32" height="42" viewBox="0 0 32 42" fill="none" xmlns="http://www.w3.org/2000/svg">
<path d="M1.11667 41.4285C1.45368 41.6038 1.83207 41.684 2.21121 41.6605C2.59036 41.637 2.95595 41.5107 3.26875 41.2951L30.3521 22.5451C30.6288 22.3534 30.855 22.0975 31.0112 21.7992C31.1674 21.501 31.249 21.1693 31.249 20.8326C31.249 20.496 31.1674 20.1643 31.0112 19.8661C30.855 19.5678 30.6288 19.3119 30.3521 19.1201L3.26875 0.370131C2.9562 0.153865 2.59043 0.0272245 2.21107 0.00392034C1.83171 -0.0193838 1.45319 0.061537 1.11652 0.237921C0.779846 0.414304 0.49784 0.67943 0.301035 1.00459C0.104231 1.32975 0.000128299 1.70255 2.82982e-08 2.08263V39.5826C-6.26404e-05 39.9629 0.103965 40.336 0.300807 40.6613C0.497649 40.9867 0.779796 41.252 1.11667 41.4285Z" fill="#181F1C"/>
</svg>
