<svg width="130" height="130" viewBox="0 0 130 130" fill="none" xmlns="http://www.w3.org/2000/svg">
<rect x="17.6665" y="14.722" width="94.6667" height="97.2223" rx="7.5" stroke="white" stroke-width="5"/>
<ellipse cx="37.1087" cy="89.7171" rx="4.33333" ry="4.44445" fill="white"/>
<rect x="34.6675" width="5.41667" height="15.5556" fill="white"/>
<rect x="48.7515" width="5.41667" height="15.5556" fill="white"/>
<rect x="62.834" width="5.41667" height="15.5556" fill="white"/>
<rect x="76.918" width="5.41667" height="15.5556" fill="white"/>
<rect x="91.0005" width="5.41667" height="15.5556" fill="white"/>
<rect x="34.667" y="114.444" width="5.41667" height="15.5556" fill="white"/>
<rect x="48.75" y="114.444" width="5.41667" height="15.5556" fill="white"/>
<rect x="62.8335" y="114.444" width="5.41667" height="15.5556" fill="white"/>
<rect x="76.9165" y="114.444" width="5.41667" height="15.5556" fill="white"/>
<rect x="91" y="114.444" width="5.41667" height="15.5556" fill="white"/>
<rect x="114.833" y="94.4445" width="5.55556" height="15.1667" transform="rotate(-90 114.833 94.4445)" fill="white"/>
<rect x="114.833" y="80.0001" width="5.55556" height="15.1667" transform="rotate(-90 114.833 80.0001)" fill="white"/>
<rect x="114.833" y="65.5558" width="5.55556" height="15.1667" transform="rotate(-90 114.833 65.5558)" fill="white"/>
<rect x="114.833" y="51.111" width="5.55556" height="15.1667" transform="rotate(-90 114.833 51.111)" fill="white"/>
<rect x="114.833" y="36.6666" width="5.55556" height="15.1667" transform="rotate(-90 114.833 36.6666)" fill="white"/>
<rect y="94.4445" width="5.55556" height="15.1667" transform="rotate(-90 0 94.4445)" fill="white"/>
<rect y="80.0001" width="5.55556" height="15.1667" transform="rotate(-90 0 80.0001)" fill="white"/>
<rect y="65.5558" width="5.55556" height="15.1667" transform="rotate(-90 0 65.5558)" fill="white"/>
<rect y="51.111" width="5.55556" height="15.1667" transform="rotate(-90 0 51.111)" fill="white"/>
<rect y="36.6666" width="5.55556" height="15.1667" transform="rotate(-90 0 36.6666)" fill="white"/>
</svg>
