<svg width="100" height="100" viewBox="0 0 100 100" fill="none" xmlns="http://www.w3.org/2000/svg">
<path d="M38.6718 50C38.6718 52.9008 39.8242 55.6828 41.8753 57.734C43.9265 59.7852 46.7085 60.9375 49.6093 60.9375C52.5101 60.9375 55.2921 59.7852 57.3433 57.734C59.3945 55.6828 60.5468 52.9008 60.5468 50C60.5468 47.0992 59.3945 44.3172 57.3433 42.266C55.2921 40.2148 52.5101 39.0625 49.6093 39.0625C46.7085 39.0625 43.9265 40.2148 41.8753 42.266C39.8242 44.3172 38.6718 47.0992 38.6718 50V50ZM92.0117 47.4805C82.7539 27.9785 68.7597 18.1641 50 18.1641C31.2304 18.1641 17.246 27.9785 7.98824 47.4902C7.6169 48.2765 7.42432 49.1353 7.42432 50.0049C7.42432 50.8745 7.6169 51.7332 7.98824 52.5195C17.246 72.0215 31.2402 81.8359 50 81.8359C68.7695 81.8359 82.7539 72.0215 92.0117 52.5098C92.7636 50.9277 92.7636 49.0918 92.0117 47.4805V47.4805ZM49.6093 67.1875C40.1171 67.1875 32.4218 59.4922 32.4218 50C32.4218 40.5078 40.1171 32.8125 49.6093 32.8125C59.1015 32.8125 66.7968 40.5078 66.7968 50C66.7968 59.4922 59.1015 67.1875 49.6093 67.1875Z" fill="#5F5F5F"/>
</svg>
