<svg width="100" height="100" viewBox="0 0 100 100" fill="none" xmlns="http://www.w3.org/2000/svg">
<path d="M52.7498 10.75C51.1665 9.375 48.7915 9.375 47.2082 10.75C26.8748 28.6667 16.6665 44.25 16.6665 57.5C16.6665 78.25 32.4998 91.6667 49.9998 91.6667C67.4998 91.6667 83.3332 78.25 83.3332 57.5C83.3332 44.25 73.1248 28.6667 52.7498 10.75ZM32.6248 58.3333C34.1665 58.3333 35.4165 59.4167 35.7082 60.9167C37.4165 70.1667 45.2082 73.3333 50.8748 72.875C52.6665 72.7917 54.1665 74.2083 54.1665 76C54.1665 77.6667 52.8332 79.0417 51.1665 79.125C42.2915 79.6667 31.9165 74.5833 29.5415 61.9583C29.4691 61.5116 29.4946 61.0545 29.6162 60.6186C29.7378 60.1827 29.9526 59.7784 30.2459 59.4336C30.5391 59.0889 30.9037 58.812 31.3144 58.622C31.7252 58.432 32.1723 58.3335 32.6248 58.3333V58.3333Z" fill="#C90000"/>
</svg>
