<svg width="116" height="88" viewBox="0 0 116 88" fill="none" xmlns="http://www.w3.org/2000/svg">
<path d="M58.0002 11.5001C77.1589 11.5001 95.0339 18.8288 108.337 32.1322L115.996 24.473C100.651 9.12217 80.0514 0.666748 58.0002 0.666748C35.9489 0.672165 15.3493 9.12217 0.00390625 24.473L7.66307 32.1322C20.9664 18.8288 38.8414 11.5001 58.0002 11.5001ZM88.7181 56.4963C72.0672 39.8455 43.9331 39.8455 27.2822 56.4963L34.9414 64.1555C47.4377 51.6592 68.5627 51.6592 81.0589 64.1555L88.7181 56.4963Z" fill="white"/>
<path d="M103.701 40.1705C78.9356 15.3947 37.0702 15.3947 12.3052 40.1705L19.9643 47.8297C40.5856 27.2084 75.4202 27.2084 96.0414 47.8297L103.701 40.1705Z" fill="white"/>
<path d="M58.0003 87.3334C63.9834 87.3334 68.8337 82.4832 68.8337 76.5001C68.8337 70.517 63.9834 65.6667 58.0003 65.6667C52.0172 65.6667 47.167 70.517 47.167 76.5001C47.167 82.4832 52.0172 87.3334 58.0003 87.3334Z" fill="white"/>
</svg>
