<svg width="160" height="160" viewBox="0 0 160 160" fill="none" xmlns="http://www.w3.org/2000/svg">
<path d="M142.76 64.936C136.472 55.7584 128.24 48.0787 118.648 42.4426C109.056 36.8066 98.3408 33.3525 87.2632 32.3261C76.1857 31.2997 65.0181 32.7261 54.5541 36.5038C44.0902 40.2816 34.5869 46.318 26.7198 54.184C23.4637 57.4847 20.5056 61.0666 17.8798 64.888C17.4307 65.5356 17.1135 66.2654 16.9465 67.0357C16.7794 67.8059 16.7657 68.6016 16.9061 69.3771C17.0465 70.1527 17.3382 70.893 17.7647 71.5558C18.1913 72.2185 18.7441 72.7908 19.3918 73.24C20.0395 73.6891 20.7693 74.0062 21.5395 74.1733C22.3098 74.3404 23.1054 74.3541 23.881 74.2137C25.4473 73.9302 26.8368 73.036 27.7438 71.728C29.9607 68.498 32.4556 65.4678 35.1998 62.672C41.8229 56.0495 49.8239 50.9678 58.6338 47.7885C67.4437 44.6092 76.8459 43.4104 86.1717 44.2773C95.4975 45.1442 104.518 48.0555 112.591 52.8042C120.664 57.5529 127.591 64.0222 132.88 71.752C133.784 73.0621 135.171 73.9596 136.737 74.2469C138.302 74.5342 139.918 74.1878 141.228 73.284C142.538 72.3801 143.435 70.9928 143.723 69.4272C144.01 67.8617 143.664 66.2461 142.76 64.936V64.936ZM56.9118 88.4C61.1974 84.1138 66.5795 81.0892 72.469 79.657C78.3586 78.2249 84.5286 78.4404 90.3038 80.28C86.3038 83.16 82.8158 86.696 79.9838 90.728C74.6878 90.808 69.4238 92.856 65.3918 96.888C63.5404 98.7672 62.0563 100.976 61.0158 103.4C60.3772 104.858 59.1856 106.002 57.7034 106.581C56.2211 107.16 54.5694 107.127 53.1118 106.488C51.6542 105.849 50.5099 104.658 49.9308 103.176C49.3517 101.693 49.3852 100.042 50.0238 98.584C51.6958 94.776 54.0078 91.304 56.9038 88.4H56.9118ZM116.72 69.288C117.624 70.192 118.496 71.136 119.336 72.128C114.026 71.733 108.689 72.2912 103.576 73.776C98.9458 70.4011 93.6378 68.0725 88.0192 66.9512C82.4005 65.8299 76.6053 65.9427 71.0346 67.2817C65.4638 68.6208 60.2504 71.1541 55.7552 74.7065C51.26 78.2589 47.5902 82.7456 44.9998 87.856C44.6564 88.5792 44.1718 89.2265 43.5744 89.7596C42.977 90.2926 42.279 90.7008 41.5214 90.9599C40.7639 91.219 39.9621 91.3239 39.1634 91.2683C38.3647 91.2128 37.5851 90.998 36.8707 90.6365C36.1563 90.275 35.5215 89.7742 35.0036 89.1636C34.4858 88.553 34.0954 87.8449 33.8554 87.081C33.6154 86.3172 33.5308 85.513 33.6064 84.716C33.6821 83.9189 33.9165 83.145 34.2958 82.44C37.9759 75.1749 43.3251 68.8852 49.905 64.0864C56.485 59.2876 64.1084 56.1163 72.1505 54.8322C80.1926 53.5482 88.4245 54.1881 96.1716 56.6994C103.919 59.2107 110.96 63.522 116.72 69.28V69.288ZM96.5358 91.536C97.1118 93.5895 97.2714 95.7376 97.0053 97.8537C96.7391 99.9699 96.0526 102.011 94.986 103.858C93.9194 105.705 92.4943 107.321 90.7944 108.609C89.0946 109.897 87.1544 110.832 85.0878 111.36L81.3998 112.304C81.1331 115.008 81.1599 117.733 81.4798 120.432L84.2798 121.096C86.4008 121.598 88.397 122.527 90.1459 123.828C91.8948 125.128 93.3595 126.773 94.4502 128.66C95.5409 130.547 96.2346 132.637 96.4887 134.801C96.7427 136.966 96.5519 139.16 95.9278 141.248L94.9118 144.632C96.9678 146.256 99.2078 147.648 101.592 148.776L104.192 146.016C105.689 144.431 107.494 143.169 109.496 142.306C111.498 141.444 113.655 141 115.835 141.002C118.015 141.003 120.172 141.45 122.173 142.315C124.174 143.18 125.977 144.445 127.472 146.032L130.168 148.896C132.504 147.816 134.712 146.48 136.744 144.912L135.488 140.464C134.912 138.41 134.752 136.262 135.018 134.146C135.284 132.03 135.971 129.988 137.038 128.141C138.104 126.294 139.529 124.679 141.229 123.391C142.929 122.103 144.869 121.167 146.936 120.64L150.616 119.696C150.884 116.989 150.857 114.261 150.536 111.56L147.752 110.904C145.631 110.402 143.635 109.473 141.886 108.172C140.137 106.871 138.672 105.227 137.581 103.34C136.491 101.453 135.797 99.3633 135.543 97.1986C135.289 95.034 135.48 92.8402 136.104 90.752L137.112 87.376C135.05 85.7454 132.809 84.3551 130.432 83.232L127.832 85.976C126.336 87.5614 124.531 88.8243 122.529 89.6873C120.527 90.5502 118.37 90.995 116.19 90.9942C114.01 90.9935 111.853 90.5473 109.852 89.6829C107.851 88.8186 106.047 87.5544 104.552 85.968L101.856 83.104C99.5255 84.181 97.3225 85.5146 95.2878 87.08L96.5358 91.536V91.536ZM116 124C113.878 124 111.843 123.157 110.343 121.657C108.843 120.157 108 118.122 108 116C108 113.878 108.843 111.843 110.343 110.343C111.843 108.843 113.878 108 116 108C118.122 108 120.156 108.843 121.657 110.343C123.157 111.843 124 113.878 124 116C124 118.122 123.157 120.157 121.657 121.657C120.156 123.157 118.122 124 116 124Z" fill="white"/>
</svg>
