<svg width="120" height="120" viewBox="0 0 120 120" fill="none" xmlns="http://www.w3.org/2000/svg">
<path d="M59.9998 30C77.6848 30 94.1848 36.765 106.465 49.045L113.535 41.975C99.3699 27.805 80.3548 20 59.9998 20C39.6448 20.005 20.6298 27.805 6.46484 41.975L13.5348 49.045C25.8148 36.765 42.3148 30 59.9998 30ZM88.3548 71.535C72.9848 56.165 47.0148 56.165 31.6448 71.535L38.7148 78.605C50.2498 67.07 69.7498 67.07 81.2848 78.605L88.3548 71.535Z" fill="#8DABF3"/>
<path d="M102.185 56.465C79.3248 33.595 40.6798 33.595 17.8198 56.465L24.8898 63.535C43.9248 44.5 76.0798 44.5 95.1148 63.535L102.185 56.465Z" fill="#8DABF3"/>
<path d="M60 100C65.5228 100 70 95.5228 70 90C70 84.4771 65.5228 80 60 80C54.4772 80 50 84.4771 50 90C50 95.5228 54.4772 100 60 100Z" fill="#8DABF3"/>
</svg>
