<svg width="141" height="107" viewBox="0 0 141 107" fill="none" xmlns="http://www.w3.org/2000/svg">
<path d="M70.5 13.375C93.7893 13.375 115.518 22.4232 131.69 38.8477L141 29.3916C122.346 10.4392 97.3054 0 70.5 0C43.6946 0.0066875 18.6538 10.4392 0 29.3916L9.31045 38.8477C25.4819 22.4232 47.2107 13.375 70.5 13.375ZM107.841 68.9281C87.5999 48.3707 53.4001 48.3707 33.1594 68.9281L42.4699 78.3842C57.6603 62.9561 83.3397 62.9561 98.5301 78.3842L107.841 68.9281Z" fill="#41EB5C"/>
<path d="M126.054 48.7719C95.9493 18.1833 45.0578 18.1833 14.9536 48.7719L24.2641 58.228C49.3312 32.7687 91.6759 32.7687 116.743 58.228L126.054 48.7719Z" fill="#41EB5C"/>
<path d="M70.4995 107C77.7725 107 83.6685 101.012 83.6685 93.625C83.6685 86.2382 77.7725 80.25 70.4995 80.25C63.2265 80.25 57.3306 86.2382 57.3306 93.625C57.3306 101.012 63.2265 107 70.4995 107Z" fill="#41EB5C"/>
</svg>
