<svg width="100" height="100" viewBox="0 0 100 100" fill="none" xmlns="http://www.w3.org/2000/svg">
<path d="M49.6093 60.9375C52.5101 60.9375 55.2921 59.7852 57.3433 57.734C59.3945 55.6828 60.5468 52.9008 60.5468 50C60.5468 49.6797 60.5322 49.3623 60.5048 49.0488L48.6582 60.8955C48.9716 60.9229 49.288 60.9375 49.6093 60.9375ZM85.8125 16.168L81.6406 12C81.4941 11.8536 81.2954 11.7714 81.0883 11.7714C80.8812 11.7714 80.6826 11.8536 80.5361 12L69.8603 22.6787C63.971 19.6689 57.3509 18.1641 50 18.1641C31.2304 18.1641 17.2265 27.9395 7.98824 47.4902C7.6169 48.2765 7.42432 49.1353 7.42432 50.0049C7.42432 50.8745 7.6169 51.7332 7.98824 52.5195C11.6796 60.2949 16.1246 66.527 21.3232 71.2158L10.9921 81.543C10.8457 81.6895 10.7635 81.8881 10.7635 82.0952C10.7635 82.3023 10.8457 82.501 10.9921 82.6475L15.1611 86.8164C15.3076 86.9628 15.5062 87.045 15.7133 87.045C15.9204 87.045 16.1191 86.9628 16.2656 86.8164L85.8125 17.2734C85.8851 17.2009 85.9427 17.1147 85.982 17.0199C86.0214 16.925 86.0416 16.8234 86.0416 16.7207C86.0416 16.618 86.0214 16.5164 85.982 16.4215C85.9427 16.3267 85.8851 16.2405 85.8125 16.168ZM32.4218 50C32.4216 47.0313 33.1902 44.1132 34.653 41.5298C36.1157 38.9465 38.2226 36.7861 40.7684 35.2591C43.3143 33.732 46.2122 32.8905 49.18 32.8163C52.1478 32.7421 55.0842 33.438 57.7031 34.8359L52.955 39.584C51.0402 38.9709 48.9935 38.897 47.0394 39.3706C45.0854 39.8441 43.2995 40.8467 41.8778 42.2685C40.4561 43.6902 39.4534 45.476 38.9799 47.4301C38.5063 49.3841 38.5802 51.4309 39.1933 53.3457L34.4453 58.0938C33.1128 55.6043 32.4177 52.8236 32.4218 50V50Z" fill="black"/>
<path d="M92.0117 47.4805C88.5742 40.2409 84.4827 34.3376 79.7373 29.7705L65.6611 43.8477C66.8477 46.9494 67.1107 50.3283 66.4184 53.5762C65.7261 56.8242 64.108 59.8022 61.7598 62.1504C59.4116 64.4987 56.4336 66.1167 53.1856 66.809C49.9377 67.5013 46.5587 67.2383 43.457 66.0518L31.5176 77.9912C37.0566 80.5544 43.2174 81.8359 50 81.8359C68.7695 81.8359 82.7734 72.0605 92.0117 52.5098C92.3831 51.7235 92.5757 50.8647 92.5757 49.9951C92.5757 49.1255 92.3831 48.2667 92.0117 47.4805V47.4805Z" fill="black"/>
</svg>
