<svg width="150" height="150" viewBox="0 0 150 150" fill="none" xmlns="http://www.w3.org/2000/svg">
<path d="M93.75 100H56.25C54.5924 100 53.0027 100.658 51.8306 101.831C50.6585 103.003 50 104.592 50 106.25C50 107.908 50.6585 109.497 51.8306 110.669C53.0027 111.842 54.5924 112.5 56.25 112.5H93.75C95.4076 112.5 96.9973 111.842 98.1694 110.669C99.3415 109.497 100 107.908 100 106.25C100 104.592 99.3415 103.003 98.1694 101.831C96.9973 100.658 95.4076 100 93.75 100ZM56.25 62.5H62.5C64.1576 62.5 65.7473 61.8415 66.9194 60.6694C68.0915 59.4973 68.75 57.9076 68.75 56.25C68.75 54.5924 68.0915 53.0027 66.9194 51.8306C65.7473 50.6585 64.1576 50 62.5 50H56.25C54.5924 50 53.0027 50.6585 51.8306 51.8306C50.6585 53.0027 50 54.5924 50 56.25C50 57.9076 50.6585 59.4973 51.8306 60.6694C53.0027 61.8415 54.5924 62.5 56.25 62.5V62.5ZM93.75 75H56.25C54.5924 75 53.0027 75.6585 51.8306 76.8306C50.6585 78.0027 50 79.5924 50 81.25C50 82.9076 50.6585 84.4973 51.8306 85.6694C53.0027 86.8415 54.5924 87.5 56.25 87.5H93.75C95.4076 87.5 96.9973 86.8415 98.1694 85.6694C99.3415 84.4973 100 82.9076 100 81.25C100 79.5924 99.3415 78.0027 98.1694 76.8306C96.9973 75.6585 95.4076 75 93.75 75ZM123.187 95.5625C122.593 94.9935 121.892 94.5475 121.125 94.25C120.379 93.9116 119.569 93.7366 118.75 93.7366C117.931 93.7366 117.121 93.9116 116.375 94.25C115.608 94.5475 114.907 94.9935 114.313 95.5625C113.76 96.17 113.317 96.8676 113 97.625C112.521 98.7632 112.391 100.018 112.624 101.23C112.858 102.443 113.445 103.559 114.313 104.437C114.897 105.017 115.589 105.475 116.351 105.786C117.112 106.097 117.927 106.255 118.75 106.25C119.567 106.24 120.374 106.07 121.125 105.75C121.882 105.433 122.58 104.99 123.187 104.437C124.055 103.559 124.642 102.443 124.876 101.23C125.109 100.018 124.979 98.7632 124.5 97.625C124.183 96.8676 123.74 96.17 123.187 95.5625V95.5625ZM125 55.875C124.935 55.3008 124.809 54.7352 124.625 54.1875V53.625C124.324 52.9824 123.924 52.3917 123.438 51.875L85.9375 14.375C85.4208 13.8889 84.8301 13.488 84.1875 13.1875C84.0009 13.161 83.8116 13.161 83.625 13.1875C82.9901 12.8234 82.2889 12.5897 81.5625 12.5H43.75C38.7772 12.5 34.0081 14.4754 30.4917 17.9917C26.9754 21.5081 25 26.2772 25 31.25V118.75C25 123.723 26.9754 128.492 30.4917 132.008C34.0081 135.525 38.7772 137.5 43.75 137.5H93.75C95.4076 137.5 96.9973 136.842 98.1694 135.669C99.3415 134.497 100 132.908 100 131.25C100 129.592 99.3415 128.003 98.1694 126.831C96.9973 125.658 95.4076 125 93.75 125H43.75C42.0924 125 40.5027 124.342 39.3306 123.169C38.1585 121.997 37.5 120.408 37.5 118.75V31.25C37.5 29.5924 38.1585 28.0027 39.3306 26.8306C40.5027 25.6585 42.0924 25 43.75 25H75V43.75C75 48.7228 76.9754 53.4919 80.4917 57.0083C84.0081 60.5246 88.7772 62.5 93.75 62.5H112.5V75C112.5 76.6576 113.158 78.2473 114.331 79.4194C115.503 80.5915 117.092 81.25 118.75 81.25C120.408 81.25 121.997 80.5915 123.169 79.4194C124.342 78.2473 125 76.6576 125 75V55.875ZM93.75 50C92.0924 50 90.5027 49.3415 89.3306 48.1694C88.1585 46.9973 87.5 45.4076 87.5 43.75V33.8125L103.688 50H93.75ZM118.75 112.5C117.092 112.5 115.503 113.158 114.331 114.331C113.158 115.503 112.5 117.092 112.5 118.75V131.25C112.5 132.908 113.158 134.497 114.331 135.669C115.503 136.842 117.092 137.5 118.75 137.5C120.408 137.5 121.997 136.842 123.169 135.669C124.342 134.497 125 132.908 125 131.25V118.75C125 117.092 124.342 115.503 123.169 114.331C121.997 113.158 120.408 112.5 118.75 112.5Z" fill="white"/>
</svg>
