<svg width="100" height="100" viewBox="0 0 100 100" fill="none" xmlns="http://www.w3.org/2000/svg">
<rect x="14.1665" y="11.9016" width="71.6669" height="73.6324" rx="7.5" stroke="#8DABF3" stroke-width="5"/>
<ellipse cx="28.5453" cy="69.0132" rx="3.33334" ry="3.4188" fill="#8DABF3"/>
<rect x="26.6675" width="4.16668" height="11.9658" fill="#8DABF3"/>
<rect x="37.501" width="4.16668" height="11.9658" fill="#8DABF3"/>
<rect x="48.334" width="4.16668" height="11.9658" fill="#8DABF3"/>
<rect x="59.168" width="4.16668" height="11.9658" fill="#8DABF3"/>
<rect x="70.0005" width="4.16668" height="11.9658" fill="#8DABF3"/>
<rect x="26.667" y="88.0342" width="4.16668" height="11.9658" fill="#8DABF3"/>
<rect x="37.5" y="88.0342" width="4.16668" height="11.9658" fill="#8DABF3"/>
<rect x="48.3335" y="88.0342" width="4.16668" height="11.9658" fill="#8DABF3"/>
<rect x="59.1665" y="88.0342" width="4.16668" height="11.9658" fill="#8DABF3"/>
<rect x="70" y="88.0342" width="4.16668" height="11.9658" fill="#8DABF3"/>
<rect x="88.3335" y="72.6495" width="4.2735" height="11.6667" transform="rotate(-90 88.3335 72.6495)" fill="#8DABF3"/>
<rect x="88.3335" y="61.5385" width="4.2735" height="11.6667" transform="rotate(-90 88.3335 61.5385)" fill="#8DABF3"/>
<rect x="88.3335" y="50.4275" width="4.2735" height="11.6667" transform="rotate(-90 88.3335 50.4275)" fill="#8DABF3"/>
<rect x="88.3335" y="39.316" width="4.2735" height="11.6667" transform="rotate(-90 88.3335 39.316)" fill="#8DABF3"/>
<rect x="88.3335" y="28.2051" width="4.2735" height="11.6667" transform="rotate(-90 88.3335 28.2051)" fill="#8DABF3"/>
<rect y="72.6495" width="4.2735" height="11.6667" transform="rotate(-90 0 72.6495)" fill="#8DABF3"/>
<rect y="61.5385" width="4.2735" height="11.6667" transform="rotate(-90 0 61.5385)" fill="#8DABF3"/>
<rect y="50.4275" width="4.2735" height="11.6667" transform="rotate(-90 0 50.4275)" fill="#8DABF3"/>
<rect y="39.316" width="4.2735" height="11.6667" transform="rotate(-90 0 39.316)" fill="#8DABF3"/>
<rect y="28.2051" width="4.2735" height="11.6667" transform="rotate(-90 0 28.2051)" fill="#8DABF3"/>
</svg>
