<svg width="30" height="30" viewBox="0 0 30 30" fill="none" xmlns="http://www.w3.org/2000/svg">
<path d="M15 2.5C12.5277 2.5 10.111 3.23311 8.05538 4.60663C5.99976 5.98015 4.39761 7.93238 3.45151 10.2165C2.50542 12.5005 2.25787 15.0139 2.74019 17.4386C3.2225 19.8634 4.41301 22.0907 6.16117 23.8388C7.90933 25.587 10.1366 26.7775 12.5614 27.2598C14.9861 27.7421 17.4995 27.4946 19.7835 26.5485C22.0676 25.6024 24.0199 24.0002 25.3934 21.9446C26.7669 19.889 27.5 17.4723 27.5 15C27.5 13.3585 27.1767 11.733 26.5485 10.2165C25.9203 8.69989 24.9996 7.3219 23.8388 6.16117C22.6781 5.00043 21.3001 4.07969 19.7835 3.45151C18.267 2.82332 16.6415 2.5 15 2.5V2.5ZM15 25C13.0222 25 11.0888 24.4135 9.4443 23.3147C7.79981 22.2159 6.51809 20.6541 5.76121 18.8268C5.00433 16.9996 4.8063 14.9889 5.19215 13.0491C5.57801 11.1093 6.53041 9.32746 7.92894 7.92893C9.32746 6.53041 11.1093 5.578 13.0491 5.19215C14.9889 4.8063 16.9996 5.00433 18.8268 5.7612C20.6541 6.51808 22.2159 7.79981 23.3147 9.4443C24.4135 11.0888 25 13.0222 25 15C25 17.6522 23.9464 20.1957 22.0711 22.0711C20.1957 23.9464 17.6522 25 15 25V25Z" fill="#181F1C"/>
<path d="M18.375 10.4875L13.65 16.7375L11.6125 14.1C11.4086 13.8381 11.109 13.6679 10.7797 13.6269C10.4503 13.5858 10.1181 13.6773 9.85624 13.8812C9.59434 14.0851 9.42416 14.3847 9.38314 14.714C9.34211 15.0434 9.43361 15.3756 9.63749 15.6375L12.675 19.525C12.7927 19.6739 12.9428 19.7941 13.1139 19.8765C13.285 19.9588 13.4726 20.001 13.6625 20C13.8534 19.9995 14.0416 19.9553 14.2128 19.8708C14.384 19.7863 14.5335 19.6637 14.65 19.5125L20.3625 12.0125C20.5647 11.7473 20.6533 11.4126 20.6088 11.082C20.5642 10.7515 20.3902 10.4522 20.125 10.25C19.8598 10.0477 19.5251 9.95916 19.1946 10.0037C18.864 10.0482 18.5647 10.2223 18.3625 10.4875H18.375Z" fill="#181F1C"/>
</svg>
