<svg width="143" height="143" viewBox="0 0 143 143" fill="none" xmlns="http://www.w3.org/2000/svg">
<path d="M4.43152 4.43128C6.97403 1.88954 10.4219 0.46167 14.017 0.46167C17.6122 0.46167 21.0601 1.88954 23.6026 4.43128L71.5438 52.3725L119.485 4.43128C122.042 1.96157 125.467 0.594999 129.022 0.62589C132.577 0.656781 135.977 2.08266 138.491 4.59643C141.005 7.1102 142.431 10.5107 142.461 14.0656C142.492 17.6205 141.126 21.0453 138.656 23.6023L90.7148 71.5435L138.656 119.485C141.126 122.042 142.492 125.467 142.461 129.021C142.431 132.576 141.005 135.977 138.491 138.491C135.977 141.004 132.577 142.43 129.022 142.461C125.467 142.492 122.042 141.125 119.485 138.656L71.5438 90.7146L23.6026 138.656C21.0455 141.125 17.6207 142.492 14.0658 142.461C10.511 142.43 7.11045 141.004 4.59668 138.491C2.08291 135.977 0.657025 132.576 0.626134 129.021C0.595243 125.467 1.96182 122.042 4.43152 119.485L52.3727 71.5435L4.43152 23.6023C1.88978 21.0598 0.461914 17.6119 0.461914 14.0168C0.461914 10.4217 1.88978 6.97378 4.43152 4.43128V4.43128Z" fill="#181F1C"/>
</svg>
