<svg width="96" height="117" viewBox="0 0 96 117" fill="none" xmlns="http://www.w3.org/2000/svg">
<path d="M47.9998 116.167C35.4762 116.167 24.4574 111.804 14.9434 103.079C5.42548 94.35 0.666504 82.5403 0.666504 67.65C0.666504 58.282 4.2165 48.125 11.3165 37.1792C18.4165 26.2334 29.1651 14.4 43.5623 1.67921C44.154 1.18615 44.8443 0.791708 45.6332 0.495874C46.4221 0.200041 47.2109 0.052124 47.9998 0.052124C48.7887 0.052124 49.5776 0.200041 50.3665 0.495874C51.1554 0.791708 51.8457 1.18615 52.4373 1.67921C66.8346 14.4 77.5832 26.2334 84.6832 37.1792C91.7832 48.125 95.3332 58.282 95.3332 67.65C95.3332 82.5403 90.5742 94.35 81.0562 103.079C71.5422 111.804 60.5234 116.167 47.9998 116.167ZM47.9998 104.333C57.9596 104.333 66.3652 100.931 73.2167 94.1271C80.0721 87.323 83.4998 78.4973 83.4998 67.65C83.4998 60.6487 80.5908 52.6355 74.7727 43.6106C68.9547 34.5897 60.0304 24.557 47.9998 13.5125C35.9693 24.557 27.045 34.5897 21.2269 43.6106C15.4089 52.6355 12.4998 60.6487 12.4998 67.65C12.4998 78.4973 15.9256 87.323 22.7771 94.1271C29.6325 100.931 38.0401 104.333 47.9998 104.333ZM49.6269 98.4167C50.8102 98.3181 51.822 97.8507 52.6622 97.0145C53.4984 96.1743 53.9165 95.1625 53.9165 93.9792C53.9165 92.5987 53.4727 91.4903 52.5852 90.654C51.6977 89.8139 50.5637 89.4431 49.1832 89.5417C45.1401 89.8375 40.8505 88.7292 36.3144 86.2165C31.7783 83.7 28.9186 79.1382 27.7352 72.5313C27.538 71.4466 27.0193 70.5591 26.1792 69.8688C25.3429 69.1785 24.3825 68.8334 23.2978 68.8334C21.9172 68.8334 20.7832 69.3501 19.8957 70.3835C19.0082 71.4209 18.7123 72.6299 19.0082 74.0105C20.6846 82.9841 24.629 89.3938 30.8415 93.2396C37.054 97.0855 43.3158 98.8112 49.6269 98.4167V98.4167Z" fill="white"/>
</svg>
